<svg width="24" height="24" viewBox="0 0 24 24" fill="none" xmlns="http://www.w3.org/2000/svg">
<g opacity="0.5">
<path fill-rule="evenodd" clip-rule="evenodd" d="M20.1275 2.80252C19.0574 1.73249 17.3226 1.73249 16.2525 2.80252L3.32199 15.7331C2.93949 16.1156 2.67876 16.6027 2.57268 17.1331L2.03649 19.8141C1.78086 21.0922 2.90776 22.2192 4.18591 21.9635L6.86684 21.4273C7.39728 21.3213 7.88445 21.0605 8.26695 20.678L21.1975 7.74747C22.2675 6.67744 22.2675 4.94259 21.1975 3.87255L20.1275 2.80252ZM17.5441 4.09416C17.9009 3.73749 18.4791 3.73749 18.8359 4.09416L19.9058 5.1642C20.2626 5.52087 20.2626 6.09915 19.9058 6.45583L17.4658 8.89587L15.1042 6.5342L17.5441 4.09416ZM13.8125 7.82584L4.61363 17.0247C4.48613 17.1522 4.39923 17.3146 4.36386 17.4914L3.82767 20.1723L6.50861 19.6361C6.68542 19.6007 6.84781 19.5139 6.97531 19.3864L16.1741 10.1875L13.8125 7.82584Z" fill="#0F0F0F"/>
</g>
</svg>
